<svg xmlns="http://www.w3.org/2000/svg" id="export" class="graph" preserveAspectRatio="xMidYMid meet" style="position: absolute; margin: 0px;" width="357" height="194"><rect id="background" fill="#fff" pointer-events="all" width="357" height="194"/><g id="origin" transform="translate(8.8, 8.8) scale(1)"><g id="clusters" class="clusters"/><g id="edge-paths" class="edge-paths"><defs><marker id="arrowhead-vee" viewBox="0 0 10 10" refX="9" refY="5" markerUnits="strokeWidth" markerWidth="8" markerHeight="6" orient="auto" style="fill: rgb(0, 0, 0);"><path d="M 0 0 L 10 5 L 0 10 L 4 5 z" style="stroke-width: 1; stroke-dasharray: 1, 0;"/></marker></defs><path class="edge-path" d="M74.03125,20L74.03125,21.666666666666668C74.03125,23.333333333333332,74.03125,26.666666666666668,74.1417025862069,30C74.2521551724138,33.333333333333336,74.47306034482759,36.666666666666664,74.58351293103449,38.333333333333336L74.69396551724138,40" marker-end="url(#arrowhead-vee)" id="edge-b" style="stroke: rgb(0, 0, 0); stroke-width: 1px; fill: none;"/><path class="edge-path" d="M118.8359375,20L118.8359375,21.666666666666668C118.8359375,23.333333333333332,118.8359375,26.666666666666668,116.37140804597702,30C113.90687859195403,33.333333333333336,108.97781968390804,36.666666666666664,106.51329022988506,38.333333333333336L104.04876077586206,40" marker-end="url(#arrowhead-vee)" id="edge-c" style="stroke: rgb(0, 0, 0); stroke-width: 1px; fill: none;"/><path class="edge-path" d="M75.953125,78L75.953125,79.66666666666667C75.953125,81.33333333333333,75.953125,84.66666666666667,76.52783764367815,88C77.10255028735632,91.33333333333333,78.25197557471265,94.66666666666667,78.8266882183908,96.33333333333333L79.40140086206897,98" marker-end="url(#arrowhead-vee)" id="edge-i" style="stroke: rgb(0, 0, 0); stroke-width: 1px; fill: none;"/><path class="edge-path" d="M147.32341056034483,78L153.58396192528735,79.66666666666667C159.84451329022988,81.33333333333333,172.36561602011497,84.66666666666667,183.1073545258621,88C193.8490930316092,91.33333333333333,202.81146731321837,94.66666666666667,207.292654454023,96.33333333333333L211.7738415948276,98" marker-end="url(#arrowhead-vee)" id="edge-i" style="stroke: rgb(0, 0, 0); stroke-width: 1px; fill: none;"/><path class="edge-path" d="M217.8671875,63.345960045053054L208.53059895833334,67.45496670421088C199.19401041666666,71.5639733633687,180.52083333333334,79.78198668168436,166.82249012212642,85.55766000750884C153.12414691091954,91.33333333333333,144.40063757183907,94.66666666666667,140.03888290229884,96.33333333333333L135.6771282327586,98" marker-end="url(#arrowhead-vee)" id="edge-a" style="stroke: rgb(0, 0, 0); stroke-width: 1px; fill: none;"/><path class="edge-path" d="M85.953125,136L85.953125,137.66666666666666C85.953125,139.33333333333334,85.953125,142.66666666666666,85.953125,146C85.953125,149.33333333333334,85.953125,152.66666666666666,85.953125,154.33333333333334L85.953125,156" marker-end="url(#arrowhead-vee)" id="edge-x" style="stroke: rgb(0, 0, 0); stroke-width: 1px; fill: none;"/><path class="edge-path" d="M272.859375,69L272.859375,72.16666666666667C272.859375,75.33333333333333,272.859375,81.66666666666667,272.28466235632186,86.5C271.70994971264366,91.33333333333333,270.5605244252874,94.66666666666667,269.98581178160924,96.33333333333333L269.41109913793105,98" marker-end="url(#arrowhead-vee)" id="edge-d" style="stroke: rgb(0, 0, 0); stroke-width: 1px; fill: none;"/><path class="edge-path" d="M262.859375,136L262.859375,137.66666666666666C262.859375,139.33333333333334,262.859375,142.66666666666666,262.859375,146C262.859375,149.33333333333334,262.859375,152.66666666666666,262.859375,154.33333333333334L262.859375,156" marker-end="url(#arrowhead-vee)" id="edge-y" style="stroke: rgb(0, 0, 0); stroke-width: 1px; fill: none;"/></g><g id="edge-labels" class="edge-labels"/><g id="nodes" class="nodes"><g id="node-0" class="node" transform="translate(75.953125,59)" style="opacity: 1;"><g transform="translate(-75.953125,-19)"><g><g class="node-item node-item-operator node-item-operator-custom" transform="translate(0,0)"><path d="M5,0h141.90625a5,5 0 0 1 5,5v15a0,0 0 0 1 0,0h-151.90625a0,0 0 0 1 0,0v-15a5,5 0 0 1 5,-5z" style="stroke: rgb(0, 0, 0); fill: rgb(128, 128, 128); stroke-width: 0;"/><text x="6" y="14" style="font-family: -apple-system, BlinkMacSystemFont, &quot;Segoe WPC&quot;, &quot;Segoe UI&quot;, Ubuntu, &quot;Droid Sans&quot;, sans-serif; font-size: 11px; text-rendering: geometricprecision; fill: rgb(255, 255, 255);">FlexAdd</text><title>0</title></g><g class="node-attribute" transform="translate(0,20)"><path d="M0,0h151.90625a0,0 0 0 1 0,0v13a5,5 0 0 1 -5,5h-141.90625a5,5 0 0 1 -5,-5v-13a0,0 0 0 1 0,0z" style="stroke: rgb(0, 0, 0); fill: rgb(255, 255, 255); stroke-width: 0;"/><text xml:space="preserve" x="6" y="12" style="font-family: -apple-system, BlinkMacSystemFont, &quot;Segoe WPC&quot;, &quot;Segoe UI&quot;, Ubuntu, &quot;Droid Sans&quot;, sans-serif; font-size: 9px; font-weight: normal; text-rendering: geometricprecision;"><tspan>custom</tspan><tspan> = 3, 65, 100, 100, 0, 38, 1…</tspan></text><line class="node" x1="0" x2="151.90625" y1="0" y2="0" style="stroke: rgb(51, 51, 51); fill: none; stroke-width: 1px;"/></g><path class="node border" d="M5,0h141.90625a5,5 0 0 1 5,5v28a5,5 0 0 1 -5,5h-141.90625a5,5 0 0 1 -5,-5v-28a5,5 0 0 1 5,-5z" style="stroke: rgb(51, 51, 51); fill: none; stroke-width: 1px;"/></g></g></g><g id="node-1" class="node" transform="translate(85.953125,117)" style="opacity: 1;"><g transform="translate(-75.953125,-19)"><g><g class="node-item node-item-operator node-item-operator-custom" transform="translate(0,0)"><path d="M5,0h141.90625a5,5 0 0 1 5,5v15a0,0 0 0 1 0,0h-151.90625a0,0 0 0 1 0,0v-15a5,5 0 0 1 5,-5z" style="stroke: rgb(0, 0, 0); fill: rgb(128, 128, 128); stroke-width: 0;"/><text x="6" y="14" style="font-family: -apple-system, BlinkMacSystemFont, &quot;Segoe WPC&quot;, &quot;Segoe UI&quot;, Ubuntu, &quot;Droid Sans&quot;, sans-serif; font-size: 11px; text-rendering: geometricprecision; fill: rgb(255, 255, 255);">FlexAdd</text><title>1</title></g><g class="node-attribute" transform="translate(0,20)"><path d="M0,0h151.90625a0,0 0 0 1 0,0v13a5,5 0 0 1 -5,5h-141.90625a5,5 0 0 1 -5,-5v-13a0,0 0 0 1 0,0z" style="stroke: rgb(0, 0, 0); fill: rgb(255, 255, 255); stroke-width: 0;"/><text xml:space="preserve" x="6" y="12" style="font-family: -apple-system, BlinkMacSystemFont, &quot;Segoe WPC&quot;, &quot;Segoe UI&quot;, Ubuntu, &quot;Droid Sans&quot;, sans-serif; font-size: 9px; font-weight: normal; text-rendering: geometricprecision;"><tspan>custom</tspan><tspan> = 3, 65, 100, 100, 0, 38, 1…</tspan></text><line class="node" x1="0" x2="151.90625" y1="0" y2="0" style="stroke: rgb(51, 51, 51); fill: none; stroke-width: 1px;"/></g><path class="node border" d="M5,0h141.90625a5,5 0 0 1 5,5v28a5,5 0 0 1 -5,5h-141.90625a5,5 0 0 1 -5,-5v-28a5,5 0 0 1 5,-5z" style="stroke: rgb(51, 51, 51); fill: none; stroke-width: 1px;"/></g></g></g><g id="node-2" class="node" transform="translate(262.859375,117)" style="opacity: 1;"><g transform="translate(-75.953125,-19)"><g><g class="node-item node-item-operator node-item-operator-custom" transform="translate(0,0)"><path d="M5,0h141.90625a5,5 0 0 1 5,5v15a0,0 0 0 1 0,0h-151.90625a0,0 0 0 1 0,0v-15a5,5 0 0 1 5,-5z" style="stroke: rgb(0, 0, 0); fill: rgb(128, 128, 128); stroke-width: 0;"/><text x="6" y="14" style="font-family: -apple-system, BlinkMacSystemFont, &quot;Segoe WPC&quot;, &quot;Segoe UI&quot;, Ubuntu, &quot;Droid Sans&quot;, sans-serif; font-size: 11px; text-rendering: geometricprecision; fill: rgb(255, 255, 255);">FlexAdd</text><title>2</title></g><g class="node-attribute" transform="translate(0,20)"><path d="M0,0h151.90625a0,0 0 0 1 0,0v13a5,5 0 0 1 -5,5h-141.90625a5,5 0 0 1 -5,-5v-13a0,0 0 0 1 0,0z" style="stroke: rgb(0, 0, 0); fill: rgb(255, 255, 255); stroke-width: 0;"/><text xml:space="preserve" x="6" y="12" style="font-family: -apple-system, BlinkMacSystemFont, &quot;Segoe WPC&quot;, &quot;Segoe UI&quot;, Ubuntu, &quot;Droid Sans&quot;, sans-serif; font-size: 9px; font-weight: normal; text-rendering: geometricprecision;"><tspan>custom</tspan><tspan> = 3, 65, 100, 100, 0, 38, 1…</tspan></text><line class="node" x1="0" x2="151.90625" y1="0" y2="0" style="stroke: rgb(51, 51, 51); fill: none; stroke-width: 1px;"/></g><path class="node border" d="M5,0h141.90625a5,5 0 0 1 5,5v28a5,5 0 0 1 -5,5h-141.90625a5,5 0 0 1 -5,-5v-28a5,5 0 0 1 5,-5z" style="stroke: rgb(51, 51, 51); fill: none; stroke-width: 1px;"/></g></g></g><g class="node graph-input" transform="translate(227.7421875,59)" style="opacity: 1;"><g transform="translate(-9.875,-10)"><g><g class="node-item graph-item-input" transform="translate(0,0)"><path d="M5,0h9.75a5,5 0 0 1 5,5v10a5,5 0 0 1 -5,5h-9.75a5,5 0 0 1 -5,-5v-10a5,5 0 0 1 5,-5z" style="stroke: rgb(0, 0, 0); fill: rgb(238, 238, 238); stroke-width: 0;"/><text x="6" y="14" style="font-family: -apple-system, BlinkMacSystemFont, &quot;Segoe WPC&quot;, &quot;Segoe UI&quot;, Ubuntu, &quot;Droid Sans&quot;, sans-serif; font-size: 11px; text-rendering: geometricprecision;">a</text><title>float32</title></g><path class="node border" d="M5,0h9.75a5,5 0 0 1 5,5v10a5,5 0 0 1 -5,5h-9.75a5,5 0 0 1 -5,-5v-10a5,5 0 0 1 5,-5z" style="stroke: rgb(51, 51, 51); fill: none; stroke-width: 1px;"/></g></g></g><g class="node graph-input" transform="translate(74.03125,10)" style="opacity: 1;"><g transform="translate(-10.2421875,-10)"><g><g class="node-item graph-item-input" transform="translate(0,0)"><path d="M5,0h10.484375a5,5 0 0 1 5,5v10a5,5 0 0 1 -5,5h-10.484375a5,5 0 0 1 -5,-5v-10a5,5 0 0 1 5,-5z" style="stroke: rgb(0, 0, 0); fill: rgb(238, 238, 238); stroke-width: 0;"/><text x="6" y="14" style="font-family: -apple-system, BlinkMacSystemFont, &quot;Segoe WPC&quot;, &quot;Segoe UI&quot;, Ubuntu, &quot;Droid Sans&quot;, sans-serif; font-size: 11px; text-rendering: geometricprecision;">b</text><title>float32</title></g><path class="node border" d="M5,0h10.484375a5,5 0 0 1 5,5v10a5,5 0 0 1 -5,5h-10.484375a5,5 0 0 1 -5,-5v-10a5,5 0 0 1 5,-5z" style="stroke: rgb(51, 51, 51); fill: none; stroke-width: 1px;"/></g></g></g><g class="node graph-input" transform="translate(118.8359375,10)" style="opacity: 1;"><g transform="translate(-9.5625,-10)"><g><g class="node-item graph-item-input" transform="translate(0,0)"><path d="M5,0h9.125a5,5 0 0 1 5,5v10a5,5 0 0 1 -5,5h-9.125a5,5 0 0 1 -5,-5v-10a5,5 0 0 1 5,-5z" style="stroke: rgb(0, 0, 0); fill: rgb(238, 238, 238); stroke-width: 0;"/><text x="6" y="14" style="font-family: -apple-system, BlinkMacSystemFont, &quot;Segoe WPC&quot;, &quot;Segoe UI&quot;, Ubuntu, &quot;Droid Sans&quot;, sans-serif; font-size: 11px; text-rendering: geometricprecision;">c</text><title>float32</title></g><path class="node border" d="M5,0h9.125a5,5 0 0 1 5,5v10a5,5 0 0 1 -5,5h-9.125a5,5 0 0 1 -5,-5v-10a5,5 0 0 1 5,-5z" style="stroke: rgb(51, 51, 51); fill: none; stroke-width: 1px;"/></g></g></g><g class="node graph-input" transform="translate(272.859375,59)" style="opacity: 1;"><g transform="translate(-10.2421875,-10)"><g><g class="node-item graph-item-input" transform="translate(0,0)"><path d="M5,0h10.484375a5,5 0 0 1 5,5v10a5,5 0 0 1 -5,5h-10.484375a5,5 0 0 1 -5,-5v-10a5,5 0 0 1 5,-5z" style="stroke: rgb(0, 0, 0); fill: rgb(238, 238, 238); stroke-width: 0;"/><text x="6" y="14" style="font-family: -apple-system, BlinkMacSystemFont, &quot;Segoe WPC&quot;, &quot;Segoe UI&quot;, Ubuntu, &quot;Droid Sans&quot;, sans-serif; font-size: 11px; text-rendering: geometricprecision;">d</text><title>float32</title></g><path class="node border" d="M5,0h10.484375a5,5 0 0 1 5,5v10a5,5 0 0 1 -5,5h-10.484375a5,5 0 0 1 -5,-5v-10a5,5 0 0 1 5,-5z" style="stroke: rgb(51, 51, 51); fill: none; stroke-width: 1px;"/></g></g></g><g class="node" transform="translate(85.953125,166)" style="opacity: 1;"><g transform="translate(-10,-10)"><g><g class="node-item graph-item-output" transform="translate(0,0)"><path d="M5,0h10a5,5 0 0 1 5,5v10a5,5 0 0 1 -5,5h-10a5,5 0 0 1 -5,-5v-10a5,5 0 0 1 5,-5z" style="stroke: rgb(0, 0, 0); fill: rgb(238, 238, 238); stroke-width: 0;"/><text x="6" y="14" style="font-family: -apple-system, BlinkMacSystemFont, &quot;Segoe WPC&quot;, &quot;Segoe UI&quot;, Ubuntu, &quot;Droid Sans&quot;, sans-serif; font-size: 11px; text-rendering: geometricprecision;">x</text><title>float32</title></g><path class="node border" d="M5,0h10a5,5 0 0 1 5,5v10a5,5 0 0 1 -5,5h-10a5,5 0 0 1 -5,-5v-10a5,5 0 0 1 5,-5z" style="stroke: rgb(51, 51, 51); fill: none; stroke-width: 1px;"/></g></g></g><g class="node" transform="translate(262.859375,166)" style="opacity: 1;"><g transform="translate(-10,-10)"><g><g class="node-item graph-item-output" transform="translate(0,0)"><path d="M5,0h10a5,5 0 0 1 5,5v10a5,5 0 0 1 -5,5h-10a5,5 0 0 1 -5,-5v-10a5,5 0 0 1 5,-5z" style="stroke: rgb(0, 0, 0); fill: rgb(238, 238, 238); stroke-width: 0;"/><text x="6" y="14" style="font-family: -apple-system, BlinkMacSystemFont, &quot;Segoe WPC&quot;, &quot;Segoe UI&quot;, Ubuntu, &quot;Droid Sans&quot;, sans-serif; font-size: 11px; text-rendering: geometricprecision;">y</text><title>float32</title></g><path class="node border" d="M5,0h10a5,5 0 0 1 5,5v10a5,5 0 0 1 -5,5h-10a5,5 0 0 1 -5,-5v-10a5,5 0 0 1 5,-5z" style="stroke: rgb(51, 51, 51); fill: none; stroke-width: 1px;"/></g></g></g></g></g></svg>